<svg xmlns="http://www.w3.org/2000/svg" width="820" height="480" viewBox="0 0 820 480">
<style>text{font-family:Arial,Helvetica,sans-serif;font-size:13px;fill:#1f2937}.title{font-size:20px;font-weight:700}.axis{stroke:#111827;stroke-width:1.2}.grid{stroke:#e5e7eb;stroke-width:1}.legend{font-size:12px}</style>
<rect width="100%" height="100%" fill="#ffffff"/>
<text class="title" x="74" y="24">End-to-End Proxy Risk-Coverage Curves</text>
<line class="grid" x1="74.0" y1="38" x2="74.0" y2="398"/>
<line class="grid" x1="74" y1="398.0" x2="684" y2="398.0"/>
<text x="64.0" y="422">0.00</text>
<text x="28" y="402.0">0.00</text>
<line class="grid" x1="226.5" y1="38" x2="226.5" y2="398"/>
<line class="grid" x1="74" y1="308.0" x2="684" y2="308.0"/>
<text x="216.5" y="422">0.25</text>
<text x="28" y="312.0">0.25</text>
<line class="grid" x1="379.0" y1="38" x2="379.0" y2="398"/>
<line class="grid" x1="74" y1="218.0" x2="684" y2="218.0"/>
<text x="369.0" y="422">0.50</text>
<text x="28" y="222.0">0.50</text>
<line class="grid" x1="531.5" y1="38" x2="531.5" y2="398"/>
<line class="grid" x1="74" y1="128.0" x2="684" y2="128.0"/>
<text x="521.5" y="422">0.75</text>
<text x="28" y="132.0">0.75</text>
<line class="grid" x1="684.0" y1="38" x2="684.0" y2="398"/>
<line class="grid" x1="74" y1="38.0" x2="684" y2="38.0"/>
<text x="674.0" y="422">1.00</text>
<text x="28" y="42.0">1.00</text>
<line class="axis" x1="74" y1="398" x2="684" y2="398"/>
<line class="axis" x1="74" y1="38" x2="74" y2="398"/>
<text x="351.0" y="454">Coverage</text>
<text transform="translate(18,260.0) rotate(-90)">Accepted-error risk</text>
<path d="M 135.0 311.0 L 196.0 323.0 L 257.0 324.0 L 379.0 326.0 L 501.0 275.9 L 623.0 234.7 L 684.0 217.7" fill="none" stroke="#b42318" stroke-width="3.0" stroke-linejoin="round"/>
<line x1="704" y1="60" x2="742" y2="60" stroke="#b42318" stroke-width="3.0"/>
<text class="legend" x="750" y="64">csrm</text>
<path d="M 135.0 281.8 L 196.0 284.8 L 257.0 269.8 L 379.0 257.9 L 501.0 250.4 L 623.0 228.2 L 684.0 217.7" fill="none" stroke="#175cd3" stroke-width="3.0" stroke-linejoin="round"/>
<line x1="704" y1="84" x2="742" y2="84" stroke="#175cd3" stroke-width="3.0"/>
<text class="legend" x="750" y="88">strongest_non_csrm</text>
<path d="M 135.0 281.0 L 196.0 284.0 L 257.0 269.0 L 379.0 257.0 L 501.0 249.7 L 623.0 227.7 L 684.0 217.7" fill="none" stroke="#067647" stroke-width="2.0" stroke-linejoin="round"/>
<line x1="704" y1="108" x2="742" y2="108" stroke="#067647" stroke-width="2.0"/>
<text class="legend" x="750" y="112">naive_orbit_average</text>
<path d="M 135.0 209.0 L 196.0 218.0 L 257.0 220.0 L 379.0 218.0 L 501.0 218.0 L 623.0 218.0 L 684.0 217.7" fill="none" stroke="#93370d" stroke-width="2.0" stroke-linejoin="round"/>
<line x1="704" y1="132" x2="742" y2="132" stroke="#93370d" stroke-width="2.0"/>
<text class="legend" x="750" y="136">single_set_sure_style</text>
<path d="M 135.0 224.0 L 196.0 224.0 L 257.0 224.5 L 379.0 222.5 L 501.0 218.4 L 623.0 217.7 L 684.0 217.7" fill="none" stroke="#7a2e8f" stroke-width="2.0" stroke-linejoin="round"/>
<line x1="704" y1="156" x2="742" y2="156" stroke="#7a2e8f" stroke-width="2.0"/>
<text class="legend" x="750" y="160">corm_max_clean</text>
</svg>